<svg id="10015.io" viewBox="0 0 480 480" xmlns="http://www.w3.org/2000/svg" xmlns:xlink="http://www.w3.org/1999/xlink" >
	<path fill="#e5d099" d="M440.5,273Q433,306,421,338.5Q409,371,386.5,400.5Q364,430,318.5,401Q273,372,248.5,405Q224,438,201.5,408.5Q179,379,148,376.5Q117,374,103.5,347.5Q90,321,81.5,294.5Q73,268,78,241Q83,214,102.5,195Q122,176,124.5,147Q127,118,158.5,122.5Q190,127,206.5,80Q223,33,253,51.5Q283,70,316,72Q349,74,375,94Q401,114,390,153Q379,192,413.5,216Q448,240,440.5,273Z" />
</svg>