<?xml version="1.0" standalone="no"?>
<!DOCTYPE svg PUBLIC "-//W3C//DTD SVG 20010904//EN"
 "http://www.w3.org/TR/2001/REC-SVG-20010904/DTD/svg10.dtd">
<svg version="1.0" xmlns="http://www.w3.org/2000/svg"
 width="1024.000000pt" height="1024.000000pt" viewBox="0 0 1024.000000 1024.000000"
 preserveAspectRatio="xMidYMid meet">

<g transform="translate(0.000000,1024.000000) scale(0.100000,-0.100000)"
fill="#000000" stroke="none">
<path d="M4865 10124 c-1615 -87 -3075 -933 -3957 -2294 -375 -579 -629 -1245
-737 -1935 -43 -280 -55 -436 -55 -775 0 -347 12 -502 59 -797 226 -1403 1033
-2636 2235 -3415 1383 -896 3154 -1046 4675 -396 975 417 1795 1135 2343 2053
817 1369 926 3076 290 4545 -528 1217 -1531 2186 -2768 2673 -429 169 -861
273 -1340 322 -149 15 -599 27 -745 19z m-298 -2793 c541 -102 1005 -410 1306
-866 59 -91 170 -307 182 -357 6 -23 16 -30 63 -43 80 -23 227 -96 290 -145
47 -36 56 -39 71 -28 10 7 47 35 82 62 285 216 684 234 1001 46 84 -51 213
-171 273 -255 309 -435 180 -1047 -276 -1318 -315 -186 -715 -161 -1011 63
l-67 51 -72 -56 c-134 -103 -323 -174 -511 -191 l-67 -5 -59 -77 c-33 -42 -95
-114 -139 -159 l-80 -83 56 0 c260 0 577 109 778 266 122 97 105 92 165 42 79
-66 169 -124 263 -170 l84 -40 -27 -37 c-118 -160 -291 -336 -432 -440 -251
-186 -538 -308 -870 -369 -73 -13 -264 -16 -1375 -19 -1452 -4 -1338 -10
-1421 73 -96 95 -93 244 7 342 63 61 85 67 292 70 l188 3 -88 55 c-249 157
-456 357 -611 590 -289 437 -388 956 -280 1479 87 426 342 837 693 1117 230
184 541 329 825 387 172 36 225 40 445 36 161 -2 236 -8 322 -24z"/>
<path d="M4101 6729 c-478 -56 -907 -355 -1122 -782 -178 -354 -185 -734 -18
-1082 159 -333 470 -580 819 -651 125 -25 344 -16 465 20 186 55 324 137 457
271 l85 86 36 -46 c85 -109 205 -221 307 -284 30 -19 57 -36 59 -38 10 -7 -62
-93 -154 -182 -320 -308 -787 -478 -1255 -458 -114 5 -250 22 -335 42 -43 11
75 -38 164 -67 627 -204 1331 -71 1851 349 89 72 246 233 313 320 l47 61 -38
6 c-20 3 -62 8 -92 12 -176 21 -375 122 -514 261 -173 174 -259 381 -259 628
0 132 14 206 63 333 102 266 367 487 660 553 91 20 288 25 368 10 23 -5 42 -5
42 -1 0 14 -66 163 -101 227 -19 35 -42 65 -51 68 -24 8 -255 8 -303 0 -22 -3
-79 -15 -127 -27 l-87 -20 -48 40 c-108 90 -290 198 -424 251 -233 93 -540
131 -808 100z m389 -384 c111 -19 195 -48 304 -102 84 -42 196 -111 196 -120
0 -3 -34 -42 -76 -86 -42 -45 -101 -119 -131 -164 -30 -46 -57 -83 -59 -83 -2
0 -31 20 -64 44 -207 152 -462 164 -681 30 -130 -79 -246 -238 -286 -396 -15
-57 -16 -76 -5 -137 16 -96 54 -170 116 -229 86 -82 220 -118 262 -71 16 19
18 33 14 108 -2 47 -5 125 -5 172 0 78 3 90 30 134 50 80 71 90 183 90 71 0
105 -5 128 -17 109 -59 190 -264 167 -426 -16 -109 -60 -191 -153 -284 -129
-128 -300 -198 -484 -198 -177 0 -315 61 -462 205 -106 104 -158 187 -206 325
-31 91 -33 101 -33 250 1 149 2 158 34 252 124 360 447 633 833 703 100 18
275 18 378 0z"/>
<path d="M5910 5611 c-71 -23 -168 -90 -190 -131 -9 -16 -6 -17 31 -9 102 23
213 -37 256 -138 7 -18 13 -55 13 -83 0 -130 -112 -230 -242 -218 l-49 5 36
-37 c20 -21 62 -50 93 -66 51 -26 67 -29 157 -29 87 0 107 3 156 26 76 36 129
86 170 161 32 60 34 68 34 163 0 90 -3 106 -29 160 -36 73 -99 135 -174 172
-48 24 -71 28 -147 30 -49 1 -101 -1 -115 -6z"/>
<path d="M7225 5576 c-64 -20 -107 -45 -152 -89 -24 -23 -43 -44 -43 -47 0 -3
35 -5 78 -5 69 0 84 -3 120 -28 65 -43 96 -97 100 -177 3 -53 0 -75 -16 -106
-42 -82 -113 -124 -209 -124 l-57 0 33 -34 c164 -169 468 -119 576 95 103 202
-5 448 -225 513 -63 19 -149 20 -205 2z"/>
</g>
</svg>
